<?xml version="1.0" encoding="utf-8"?>
<!-- Generator: Adobe Illustrator 22.1.0, SVG Export Plug-In . SVG Version: 6.00 Build 0)  -->
<svg version="1.1" id="Layer_1" xmlns="http://www.w3.org/2000/svg" xmlns:xlink="http://www.w3.org/1999/xlink" x="0px" y="0px"
	 viewBox="0 0 527.2 113.4" width="350" height="75" style="enable-background:new 0 0 527.2 113.4;" xml:space="preserve">
<style type="text/css">
	.st0{fill:#0055FF;}
</style>
<g>
	<g>
		
			<rect x="477.2" y="11.8" transform="matrix(0.7071 -0.7071 0.7071 0.7071 123.4832 360.0984)" class="st0" width="38.4" height="38.4"/>
	</g>
	<g>
		<polygon points="123.9,31 108.6,31 107,32.4 91.3,86.3 91.2,86.3 73.6,32.4 72,31 56,31 54.4,32.4 36.9,86 36.6,85.8 36.5,85.7 
			20.8,32.4 19.2,31 3.6,31 2.6,32.4 27.1,108.3 28.8,109.8 44.2,109.8 45.9,108.3 63.4,54 63.8,54 81.4,108.3 83.1,109.8 
			98.7,109.8 100.4,108.3 124.9,32.4 		"/>
		<polygon points="297,31 281.6,31 279.9,32.4 258.4,88.5 258.2,88.6 236.9,32.4 235.2,31 219.5,31 218.5,32.4 249.2,108.3 
			251,109.8 265.2,109.8 267,108.3 298,32.4 		"/>
		<path d="M376.4,74.6l1.5-1.4v-2.3c0-12.3-3.5-22.9-10.4-30.3s-16.2-11.2-27.6-11.2c-11,0-20.2,4.1-27.3,12.1
			c-7.1,8-10.6,17.7-10.6,28.7c0,11.7,3.7,21.5,11,29.2s16.9,11.6,28.5,11.6c8.4,0,15.6-2,21.4-6.1c5.8-4,11.9-10.6,14-19.6
			l-1.1-1.5h-14.4l-2,1.5c-3.6,7.2-9.1,10.6-18.2,10.6c-5.9,0-11.2-2.1-15.6-6.2c-4.2-3.9-6.6-8.6-7.2-15.3L376.4,74.6z M319.4,60.6
			c2.5-9.3,10.3-16.2,20.5-16.2c13.5,0,19.1,9.6,20.7,16.2H319.4z"/>
		<path d="M193.5,31l-1.5,1.5v7.8l-0.3,0.3c-2-2.6-4.7-4.9-7.9-6.8c-0.7-0.4-1.5-0.8-2.3-1.2c-4.3-2.1-9.2-3.1-14.5-3.1
			c-9.9,0-18.6,4-25.8,11.8s-10.8,17.6-10.8,29.1s3.6,21.3,10.8,29.1s15.9,11.8,25.8,11.8c5.3,0,10.1-1,14.4-3.1
			c0.8-0.4,1.7-0.8,2.5-1.3c3.1-1.9,5.7-4,7.7-6.5c0.1-0.1,0.4,0.1,0.5,0v8.1l1.5,1.5h13.1l1.5-1.5V32.4l-1.5-1.5L193.5,31L193.5,31
			z M185.4,89.2c-4.4,4.7-9.7,7-16.1,7c-6.2,0-10.8-2.3-15.3-7.1c-4.5-4.7-6.7-11-6.7-18.9c0-7.8,2.3-14.1,6.7-18.9
			c4.5-4.7,9-7.1,15.3-7.1s11.6,2.3,16.1,7c2.9,3.1,4.8,6.8,5.9,11.3v15.2C190.3,82.4,188.3,86.2,185.4,89.2z"/>
		<path d="M431.9,64.2c0,0-8.6-1.8-15.7-3.4c-6.5-1.5-9.8-3.4-9.8-8c0-4.9,4.7-9,14.8-9c9.9,0,15.4,4.4,15.4,8.3l1.7,1.5h14.4
			l1.1-1.4c0-10.3-8.9-22.6-32.2-22.6c-24.3,0-31.9,14.3-31.9,23.5c0,7.7,2.8,16.8,21.4,21.1c0,0,8.9,2,16,3.6
			c8.1,1.8,11.5,4.6,11.5,9.3c0,4.3-4.3,9.5-15.5,9.5c-10.4,0-16.7-5-17-10.9l-1.8-1.5h-14.7l-1.1,1.5c1.3,13.2,11.1,25.6,34.5,25.6
			c26.5,0,31.9-16.2,31.9-24.7C454.9,75.2,448.4,67.8,431.9,64.2z"/>
	</g>
</g>
</svg>
