<?xml version="1.0" encoding="utf-8"?>
<!-- Generator: Adobe Illustrator 21.1.0, SVG Export Plug-In . SVG Version: 6.00 Build 0)  -->
<svg version="1.1" id="Layer_1" xmlns="http://www.w3.org/2000/svg" xmlns:xlink="http://www.w3.org/1999/xlink" x="0px" y="0px"
	 viewBox="0 0 682 240" style="enable-background:new 0 0 682 240;" xml:space="preserve">
<style type="text/css">
	.st0{fill-rule:evenodd;clip-rule:evenodd;fill:#0055FF;}
</style>
<g>
	<g>
		
			<rect x="554.7" y="62.4" transform="matrix(-0.7071 0.7071 -0.7071 -0.7071 1037.3008 -266.5564)" class="st0" width="38.4" height="38.4"/>
	</g>
	<g>
		<polygon points="201.3,81.6 186,81.6 184.4,83 168.7,136.9 168.6,136.9 151,83 149.4,81.6 133.4,81.6 131.8,83 114.3,136.6 
			114,136.4 113.9,136.3 98.2,83 96.6,81.6 81,81.6 80,83 104.5,158.9 106.2,160.4 121.6,160.4 123.3,158.9 140.8,104.6 
			141.2,104.6 158.8,158.9 160.5,160.4 176.1,160.4 177.8,158.9 202.3,83 		"/>
		<polygon points="374.4,81.6 359,81.6 357.3,83 335.8,139.1 335.6,139.2 314.3,83 312.6,81.6 296.9,81.6 295.9,83 326.6,158.9 
			328.4,160.4 342.6,160.4 344.4,158.9 375.4,83 		"/>
		<path d="M453.8,125.2l1.5-1.4l0-2.3c0-12.3-3.5-22.9-10.4-30.3C438,83.8,428.7,80,417.3,80c-11,0-20.2,4.1-27.3,12.1
			c-7.1,8-10.6,17.7-10.6,28.7c0,11.7,3.7,21.5,11,29.2c7.3,7.7,16.9,11.6,28.5,11.6c8.4,0,15.6-2,21.4-6.1c5.8-4,11.9-10.6,14-19.6
			l-1.1-1.5h-14.4l-2,1.5c-3.6,7.2-9.1,10.6-18.2,10.6c-5.9,0-11.2-2.1-15.6-6.2c-4.2-3.9-6.6-8.6-7.2-15.3L453.8,125.2z
			 M396.8,111.2c2.5-9.3,10.3-16.2,20.5-16.2c13.5,0,19.1,9.6,20.7,16.2H396.8z"/>
		<path d="M270.9,81.6l-1.5,1.5v7.8l-0.3,0.3c-2-2.6-4.7-4.9-7.9-6.8c-0.7-0.4-1.5-0.8-2.3-1.2c-4.3-2.1-9.2-3.1-14.5-3.1
			c-9.9,0-18.6,4-25.8,11.8c-7.2,7.8-10.8,17.6-10.8,29.1c0,11.5,3.6,21.3,10.8,29.1c7.2,7.8,15.9,11.8,25.8,11.8
			c5.3,0,10.1-1,14.4-3.1c0.8-0.4,1.7-0.8,2.5-1.3c3.1-1.9,5.7-4,7.7-6.5c0.1-0.1,0.4,0.1,0.5,0v8.1l1.5,1.5h13.1l1.5-1.5V83
			l-1.5-1.5H270.9z M262.8,139.8c-4.4,4.7-9.7,7-16.1,7c-6.2,0-10.8-2.3-15.3-7.1c-4.5-4.7-6.7-11-6.7-18.9c0-7.8,2.3-14.1,6.7-18.9
			c4.5-4.7,9-7.1,15.3-7.1c6.3,0,11.6,2.3,16.1,7c2.9,3.1,4.8,6.8,5.9,11.3v15.2C267.7,133,265.7,136.8,262.8,139.8z"/>
		<path d="M509.3,114.8c0,0-8.6-1.8-15.7-3.4c-6.5-1.5-9.8-3.4-9.8-8c0-4.9,4.7-9,14.8-9c9.9,0,15.4,4.4,15.4,8.3l1.7,1.5h14.4
			l1.1-1.4c0-10.3-8.9-22.6-32.2-22.6c-24.3,0-31.9,14.3-31.9,23.5c0,7.7,2.8,16.8,21.4,21.1c0,0,8.9,2,16,3.6
			c8.1,1.8,11.5,4.6,11.5,9.3c0,4.3-4.3,9.5-15.5,9.5c-10.4,0-16.7-5-17-10.9l-1.8-1.5H467l-1.1,1.5c1.3,13.2,11.1,25.6,34.5,25.6
			c26.5,0,31.9-16.2,31.9-24.7C532.3,125.8,525.8,118.4,509.3,114.8z"/>
	</g>
</g>
</svg>
