<?xml version="1.0" encoding="UTF-8" standalone="no"?>
<!DOCTYPE svg PUBLIC "-//W3C//DTD SVG 1.1//EN" "http://www.w3.org/Graphics/SVG/1.1/DTD/svg11.dtd">
<svg version="1.1" xmlns="http://www.w3.org/2000/svg" xmlns:xlink="http://www.w3.org/1999/xlink" preserveAspectRatio="xMidYMid meet" viewBox="0.8763277765326762 0.5149802903509908 492.8674627565983 104.88324692082114" width="488.87" height="100.88"><defs><path d="M465.26 52.48C465.26 52.48 465.26 52.48 465.26 52.48C449.98 37.19 441.48 28.69 439.78 27C439.78 27 439.78 27 439.78 27C455.07 11.71 463.56 3.21 465.26 1.51C465.26 1.51 465.26 1.51 465.26 1.51C480.55 16.8 489.05 25.3 490.74 27C490.74 27 490.74 27 490.74 27C475.46 42.28 466.96 50.78 465.26 52.48Z" id="b1Rb8yfWgV"></path><path d="M101.35 27.04L99.85 28.36L85.11 78.94L85.02 78.94L68.5 28.36L67 27.04L51.99 27.04L50.49 28.36L34.06 78.66L33.78 78.47L33.69 78.37L18.96 28.36L17.45 27.04L2.81 27.04L1.88 28.36L24.87 99.58L26.46 100.99L40.91 100.99L42.51 99.58L58.93 48.63L59.31 48.63L75.82 99.58L77.42 100.99L92.06 100.99L93.65 99.58L116.64 28.36L115.71 27.04L101.35 27.04Z" id="bXXCx5UaA"></path><path d="M263.69 27.04L262.1 28.36L241.92 81L241.74 81.1L221.75 28.36L220.15 27.04L205.42 27.04L204.48 28.36L233.29 99.58L234.98 100.99L248.3 100.99L249.99 99.58L279.08 28.36L278.15 27.04L263.69 27.04Z" id="gNoIfJSZe"></path><path d="M319.99 25.57L320.78 25.6L321.55 25.65L322.32 25.71L323.08 25.78L323.84 25.87L324.58 25.97L325.32 26.08L326.05 26.21L326.78 26.35L327.49 26.5L328.2 26.67L328.9 26.84L329.59 27.04L330.28 27.24L330.95 27.46L331.62 27.69L332.28 27.94L332.94 28.19L333.58 28.46L334.22 28.75L334.85 29.04L335.47 29.35L336.08 29.67L336.69 30.01L337.29 30.36L337.88 30.72L338.46 31.09L339.03 31.48L339.59 31.88L340.15 32.29L340.7 32.72L341.24 33.16L341.77 33.61L342.29 34.07L342.81 34.55L343.32 35.04L343.81 35.54L344.3 36.05L344.78 36.58L345.25 37.12L345.71 37.66L346.15 38.22L346.58 38.79L347 39.38L347.41 39.97L347.81 40.57L348.19 41.18L348.56 41.8L348.92 42.43L349.27 43.07L349.6 43.73L349.93 44.39L350.24 45.06L350.54 45.74L350.82 46.43L351.1 47.12L351.36 47.83L351.61 48.54L351.85 49.27L352.08 50L352.29 50.74L352.49 51.49L352.68 52.25L352.86 53.01L353.03 53.79L353.18 54.57L353.32 55.35L353.45 56.15L353.57 56.95L353.67 57.76L353.76 58.58L353.84 59.4L353.91 60.24L353.97 61.07L354.01 61.92L354.04 62.77L354.06 63.62L354.06 64.49L354.06 66.64L352.66 67.96L298.23 67.77L298.27 68.24L298.33 68.7L298.38 69.15L298.45 69.6L298.52 70.04L298.6 70.48L298.68 70.91L298.77 71.33L298.86 71.74L298.97 72.15L299.08 72.56L299.19 72.95L299.31 73.34L299.44 73.73L299.57 74.11L299.71 74.49L299.86 74.86L300.01 75.22L300.17 75.58L300.34 75.93L300.51 76.28L300.69 76.63L300.87 76.97L301.07 77.3L301.26 77.64L301.47 77.96L301.68 78.28L301.89 78.6L302.12 78.92L302.35 79.23L302.58 79.53L302.82 79.83L303.07 80.13L303.33 80.43L303.59 80.72L303.85 81.01L304.13 81.29L304.41 81.57L304.69 81.85L304.98 82.13L305.3 82.41L305.61 82.69L305.93 82.96L306.25 83.23L306.57 83.48L306.9 83.73L307.23 83.98L307.56 84.21L307.9 84.44L308.24 84.66L308.58 84.87L308.92 85.08L309.27 85.28L309.62 85.47L309.97 85.66L310.33 85.84L310.69 86.01L311.05 86.17L311.41 86.33L311.78 86.48L312.15 86.62L312.52 86.76L312.89 86.89L313.27 87.01L313.65 87.12L314.03 87.23L314.41 87.33L314.8 87.42L315.19 87.5L315.58 87.58L315.98 87.65L316.37 87.71L316.77 87.77L317.17 87.81L317.57 87.85L317.98 87.89L318.39 87.91L318.8 87.93L319.21 87.94L319.62 87.95L320.26 87.94L320.88 87.92L321.49 87.89L322.09 87.85L322.67 87.8L323.24 87.73L323.81 87.65L324.36 87.56L324.89 87.46L325.42 87.34L325.94 87.21L326.44 87.08L326.93 86.92L327.42 86.76L327.89 86.58L328.35 86.39L328.8 86.19L329.25 85.97L329.68 85.75L330.1 85.51L330.51 85.25L330.91 84.99L331.31 84.71L331.69 84.42L332.07 84.12L332.43 83.8L332.79 83.47L333.14 83.13L333.48 82.77L333.81 82.4L334.13 82.02L334.45 81.63L334.76 81.22L335.06 80.8L335.35 80.37L335.63 79.92L335.91 79.46L336.18 78.99L336.45 78.5L336.7 78L338.58 76.59L352.09 76.59L353.13 78L352.97 78.63L352.8 79.25L352.62 79.86L352.43 80.47L352.22 81.06L352 81.65L351.77 82.23L351.53 82.8L351.27 83.36L351.01 83.91L350.73 84.45L350.45 84.99L350.15 85.51L349.85 86.03L349.54 86.54L349.22 87.04L348.89 87.53L348.55 88.02L348.21 88.49L347.86 88.96L347.5 89.41L347.14 89.86L346.77 90.3L346.4 90.73L346.02 91.15L345.63 91.56L345.25 91.97L344.85 92.36L344.46 92.75L344.06 93.12L343.66 93.49L343.25 93.85L342.85 94.2L342.44 94.54L342.03 94.87L341.63 95.19L341.22 95.51L340.81 95.81L340.4 96.11L339.99 96.39L339.58 96.68L339.16 96.95L338.74 97.22L338.32 97.49L337.89 97.74L337.45 97.99L337.01 98.23L336.57 98.47L336.12 98.69L335.66 98.91L335.2 99.12L334.74 99.33L334.27 99.52L333.8 99.71L333.32 99.89L332.84 100.07L332.35 100.24L331.86 100.4L331.36 100.55L330.86 100.7L330.36 100.84L329.85 100.97L329.33 101.09L328.81 101.21L328.29 101.32L327.76 101.42L327.23 101.52L326.69 101.61L326.15 101.69L325.6 101.76L325.05 101.83L324.5 101.89L323.94 101.94L323.38 101.99L322.81 102.03L322.24 102.06L321.66 102.08L321.08 102.1L320.49 102.11L319.91 102.12L319.09 102.11L318.29 102.09L317.49 102.05L316.7 102.01L315.91 101.95L315.13 101.87L314.36 101.78L313.6 101.68L312.85 101.56L312.1 101.43L311.36 101.29L310.62 101.13L309.9 100.96L309.18 100.78L308.47 100.58L307.76 100.37L307.07 100.14L306.38 99.9L305.69 99.65L305.02 99.38L304.35 99.1L303.69 98.81L303.04 98.5L302.4 98.18L301.76 97.85L301.13 97.5L300.51 97.14L299.9 96.77L299.3 96.38L298.7 95.98L298.11 95.57L297.53 95.14L296.95 94.7L296.39 94.24L295.83 93.77L295.28 93.29L294.74 92.8L294.2 92.29L293.68 91.77L293.16 91.23L292.65 90.69L292.16 90.13L291.68 89.57L291.21 89L290.75 88.43L290.31 87.85L289.88 87.26L289.46 86.66L289.05 86.06L288.66 85.45L288.28 84.83L287.91 84.2L287.56 83.57L287.21 82.93L286.88 82.28L286.57 81.63L286.26 80.96L285.97 80.3L285.7 79.62L285.43 78.94L285.18 78.25L284.94 77.55L284.71 76.85L284.5 76.14L284.3 75.42L284.11 74.69L283.94 73.96L283.77 73.22L283.62 72.48L283.49 71.73L283.36 70.97L283.25 70.2L283.16 69.43L283.07 68.65L283 67.86L282.94 67.07L282.9 66.27L282.86 65.46L282.84 64.65L282.84 63.83L282.84 63.06L282.86 62.29L282.89 61.53L282.94 60.77L282.99 60.02L283.06 59.27L283.14 58.52L283.23 57.79L283.34 57.05L283.46 56.32L283.59 55.6L283.73 54.88L283.88 54.16L284.05 53.46L284.23 52.75L284.42 52.05L284.63 51.36L284.84 50.67L285.07 49.99L285.31 49.31L285.57 48.63L285.83 47.97L286.11 47.3L286.41 46.65L286.71 46L287.03 45.35L287.36 44.71L287.7 44.07L288.05 43.44L288.42 42.82L288.8 42.2L289.19 41.59L289.6 40.98L290.01 40.38L290.45 39.79L290.89 39.2L291.34 38.61L291.81 38.03L292.29 37.46L292.79 36.9L293.29 36.34L293.8 35.8L294.32 35.27L294.84 34.75L295.38 34.25L295.92 33.77L296.46 33.29L297.02 32.83L297.58 32.39L298.15 31.96L298.72 31.54L299.31 31.13L299.9 30.74L300.49 30.37L301.1 30L301.71 29.66L302.33 29.32L302.95 29L303.58 28.7L304.22 28.4L304.87 28.13L305.52 27.86L306.18 27.61L306.85 27.38L307.52 27.16L308.2 26.95L308.88 26.75L309.58 26.58L310.28 26.41L310.98 26.26L311.7 26.12L312.42 26L313.14 25.89L313.87 25.8L314.61 25.72L315.36 25.66L316.11 25.61L316.87 25.57L317.63 25.55L318.4 25.54L319.2 25.55L319.99 25.57ZM316.28 39.81L315.21 40.04L314.15 40.37L313.08 40.79L312.01 41.31L310.95 41.92L309.88 42.62L308.81 43.42L307.74 44.31L306.67 45.3L305.6 46.37L304.53 47.55L303.46 48.81L302.39 50.18L301.31 51.63L300.24 53.18L299.17 54.82L337.83 54.82L337.54 53.76L337.18 52.67L336.75 51.54L336.23 50.4L335.63 49.26L334.94 48.13L334.16 47.01L333.28 45.93L332.3 44.9L331.22 43.92L330.04 43.01L328.74 42.18L327.32 41.45L325.79 40.82L324.14 40.31L322.36 39.94L320.45 39.7L318.4 39.62L317.34 39.67L316.28 39.81Z" id="i2cB6TlhUF"></path><path d="M156.9 25.64L157.26 25.65L157.63 25.66L158 25.68L158.36 25.7L158.73 25.72L159.09 25.75L159.45 25.78L159.81 25.81L160.17 25.85L160.52 25.89L160.88 25.94L161.23 25.98L161.58 26.04L161.93 26.09L162.28 26.15L162.62 26.21L162.97 26.28L163.31 26.35L163.65 26.43L163.99 26.5L164.32 26.58L164.66 26.67L164.99 26.76L165.32 26.85L165.65 26.95L165.98 27.05L166.31 27.15L166.63 27.26L166.95 27.37L167.27 27.49L167.59 27.6L167.91 27.73L168.22 27.85L168.53 27.98L168.84 28.12L169.15 28.26L169.46 28.4L169.76 28.54L169.82 28.57L169.93 28.63L169.98 28.66L170.04 28.69L170.1 28.71L170.15 28.74L170.21 28.77L170.26 28.8L170.32 28.83L170.38 28.85L170.43 28.88L170.49 28.91L170.54 28.94L170.6 28.97L170.65 29L170.71 29.02L170.76 29.05L170.82 29.08L170.87 29.11L170.93 29.14L170.98 29.16L171.04 29.19L171.09 29.22L171.14 29.25L171.2 29.28L171.25 29.3L171.3 29.33L171.36 29.36L171.41 29.39L171.46 29.42L171.51 29.45L171.56 29.47L171.62 29.5L171.67 29.53L171.72 29.56L171.77 29.59L171.82 29.61L171.87 29.64L171.92 29.67L172.14 29.81L172.36 29.94L172.59 30.08L172.8 30.22L173.02 30.36L173.24 30.5L173.45 30.64L173.66 30.79L173.87 30.93L174.08 31.08L174.28 31.23L174.49 31.37L174.69 31.53L174.89 31.68L175.09 31.83L175.28 31.98L175.48 32.14L175.67 32.3L175.86 32.46L176.05 32.62L176.23 32.78L176.42 32.94L176.6 33.1L176.78 33.27L176.95 33.43L177.13 33.6L177.3 33.77L177.47 33.93L177.64 34.11L177.8 34.28L177.97 34.45L178.13 34.62L178.29 34.8L178.44 34.97L178.6 35.15L178.75 35.33L178.9 35.51L179.04 35.69L179.19 35.87L179.33 36.05L179.61 35.77L179.61 28.45L181.02 26.95L193.41 26.95L194.81 28.36L194.81 99.77L193.41 101.18L181.11 101.18L179.71 99.77L179.71 92.17L179.7 92.18L179.69 92.18L179.68 92.19L179.67 92.19L179.66 92.19L179.65 92.19L179.64 92.2L179.63 92.2L179.62 92.2L179.61 92.2L179.59 92.19L179.58 92.19L179.57 92.19L179.55 92.19L179.54 92.19L179.53 92.18L179.51 92.18L179.5 92.18L179.49 92.17L179.46 92.17L179.44 92.16L179.43 92.16L179.42 92.16L179.4 92.15L179.39 92.15L179.38 92.15L179.36 92.15L179.35 92.14L179.34 92.14L179.32 92.14L179.31 92.14L179.3 92.14L179.29 92.14L179.28 92.15L179.27 92.15L179.26 92.15L179.25 92.16L179.24 92.16L179.24 92.17L179.1 92.34L178.95 92.52L178.81 92.69L178.66 92.86L178.51 93.03L178.35 93.2L178.2 93.37L178.04 93.53L177.89 93.7L177.73 93.86L177.56 94.02L177.4 94.18L177.23 94.34L177.06 94.5L176.89 94.66L176.72 94.82L176.55 94.97L176.37 95.13L176.19 95.28L176.01 95.43L175.83 95.58L175.64 95.73L175.46 95.88L175.27 96.03L175.08 96.17L174.89 96.32L174.7 96.46L174.5 96.61L174.3 96.75L174.1 96.89L173.9 97.04L173.7 97.18L173.49 97.31L173.29 97.45L173.08 97.59L172.87 97.73L172.66 97.86L172.44 98L172.23 98.14L172.01 98.27L171.95 98.3L171.9 98.34L171.84 98.37L171.78 98.41L171.73 98.44L171.67 98.47L171.61 98.51L171.55 98.54L171.49 98.57L171.43 98.6L171.37 98.64L171.32 98.67L171.26 98.7L171.2 98.73L171.14 98.76L171.08 98.79L171.02 98.82L170.96 98.85L170.9 98.88L170.84 98.91L170.78 98.94L170.72 98.97L170.66 99L170.6 99.03L170.54 99.06L170.48 99.09L170.42 99.12L170.36 99.15L170.3 99.18L170.18 99.23L170.13 99.26L170.07 99.29L170.01 99.32L169.95 99.35L169.89 99.38L169.84 99.4L169.78 99.43L169.72 99.46L169.67 99.49L169.36 99.64L169.06 99.78L168.75 99.92L168.44 100.05L168.13 100.18L167.82 100.31L167.5 100.43L167.19 100.55L166.87 100.66L166.55 100.78L166.23 100.88L165.91 100.99L165.58 101.09L165.26 101.18L164.93 101.28L164.6 101.36L164.27 101.45L163.93 101.53L163.6 101.61L163.26 101.68L162.92 101.75L162.58 101.82L162.24 101.88L161.9 101.94L161.55 102L161.2 102.05L160.85 102.1L160.5 102.14L160.15 102.18L159.79 102.22L159.44 102.25L159.08 102.28L158.72 102.31L158.36 102.33L158 102.35L157.63 102.37L157.26 102.38L156.89 102.39L156.52 102.4L156.15 102.4L155.46 102.39L154.77 102.37L154.08 102.33L153.4 102.29L152.72 102.22L152.05 102.15L151.38 102.05L150.72 101.95L150.06 101.83L149.4 101.7L148.75 101.55L148.1 101.39L147.46 101.22L146.82 101.03L146.19 100.82L145.56 100.61L144.94 100.38L144.32 100.13L143.71 99.88L143.1 99.61L142.49 99.32L141.89 99.02L141.3 98.71L140.71 98.38L140.12 98.05L139.54 97.69L138.96 97.33L138.39 96.94L137.83 96.55L137.27 96.14L136.71 95.72L136.16 95.29L135.62 94.84L135.08 94.38L134.54 93.9L134.01 93.41L133.48 92.91L132.96 92.4L132.45 91.87L131.94 91.32L131.44 90.77L130.95 90.21L130.48 89.65L130.02 89.07L129.57 88.49L129.13 87.91L128.7 87.31L128.29 86.71L127.89 86.1L127.51 85.49L127.13 84.87L126.77 84.24L126.42 83.6L126.09 82.96L125.76 82.31L125.45 81.66L125.16 81L124.87 80.33L124.6 79.65L124.34 78.97L124.09 78.29L123.86 77.59L123.64 76.89L123.43 76.18L123.23 75.47L123.05 74.75L122.88 74.02L122.72 73.29L122.57 72.55L122.44 71.81L122.32 71.06L122.21 70.3L122.12 69.53L122.03 68.76L121.96 67.99L121.91 67.21L121.86 66.42L121.83 65.62L121.81 64.82L121.81 64.02L121.81 63.21L121.83 62.41L121.86 61.62L121.91 60.83L121.96 60.05L122.03 59.27L122.12 58.5L122.21 57.74L122.32 56.98L122.44 56.23L122.57 55.48L122.72 54.74L122.88 54.01L123.05 53.28L123.23 52.56L123.43 51.85L123.64 51.14L123.86 50.44L124.09 49.75L124.34 49.06L124.6 48.38L124.87 47.71L125.16 47.04L125.45 46.38L125.76 45.72L126.09 45.07L126.42 44.43L126.77 43.8L127.13 43.17L127.51 42.55L127.89 41.93L128.29 41.32L128.7 40.72L129.13 40.13L129.57 39.54L130.02 38.96L130.48 38.39L130.95 37.82L131.44 37.26L131.94 36.71L132.45 36.17L132.96 35.64L133.48 35.12L134.01 34.62L134.54 34.13L135.08 33.66L135.62 33.19L136.16 32.75L136.71 32.31L137.27 31.89L137.83 31.48L138.39 31.09L138.96 30.71L139.54 30.34L140.12 29.99L140.71 29.65L141.3 29.32L141.89 29.01L142.49 28.71L143.1 28.43L143.71 28.16L144.32 27.9L144.94 27.66L145.56 27.43L146.19 27.21L146.82 27.01L147.46 26.82L148.1 26.64L148.75 26.48L149.4 26.34L150.06 26.2L150.72 26.08L151.38 25.98L152.05 25.89L152.72 25.81L153.4 25.75L154.08 25.7L154.77 25.66L155.46 25.64L156.15 25.64L156.52 25.64L156.9 25.64ZM157.07 39.46L156.47 39.51L155.88 39.57L155.3 39.65L154.73 39.74L154.17 39.85L153.62 39.98L153.08 40.13L152.55 40.29L152.02 40.47L151.51 40.66L151 40.88L150.5 41.11L150 41.36L149.51 41.62L149.03 41.9L148.55 42.2L148.08 42.51L147.61 42.84L147.15 43.19L146.68 43.56L146.22 43.94L145.77 44.34L145.31 44.75L144.86 45.18L144.41 45.63L143.95 46.09L143.52 46.58L143.1 47.08L142.69 47.59L142.3 48.11L141.93 48.64L141.57 49.18L141.23 49.74L140.9 50.3L140.59 50.87L140.29 51.46L140.01 52.05L139.74 52.66L139.49 53.28L139.26 53.91L139.04 54.54L138.84 55.19L138.65 55.85L138.48 56.53L138.33 57.21L138.19 57.9L138.07 58.6L137.96 59.32L137.87 60.04L137.8 60.78L137.74 61.53L137.7 62.28L137.67 63.05L137.67 63.83L137.67 64.62L137.7 65.39L137.74 66.16L137.79 66.91L137.86 67.66L137.95 68.39L138.05 69.11L138.17 69.82L138.31 70.51L138.46 71.2L138.63 71.87L138.81 72.53L139.01 73.18L139.23 73.82L139.46 74.45L139.71 75.07L139.97 75.67L140.25 76.27L140.55 76.85L140.86 77.42L141.19 77.98L141.53 78.52L141.9 79.06L142.27 79.58L142.67 80.1L143.08 80.6L143.51 81.09L143.95 81.57L144.41 82.04L144.86 82.49L145.31 82.93L145.77 83.35L146.23 83.76L146.69 84.14L147.16 84.51L147.63 84.86L148.1 85.19L148.58 85.5L149.06 85.8L149.54 86.08L150.04 86.34L150.53 86.59L151.04 86.81L151.55 87.02L152.06 87.22L152.59 87.39L153.12 87.55L153.66 87.7L154.21 87.82L154.76 87.93L155.33 88.02L155.9 88.1L156.49 88.15L157.09 88.2L157.69 88.22L158.31 88.23L158.95 88.22L159.58 88.2L160.21 88.15L160.82 88.1L161.43 88.02L162.03 87.93L162.62 87.82L163.21 87.7L163.79 87.56L164.36 87.4L164.92 87.22L165.48 87.03L166.03 86.82L166.57 86.6L167.1 86.36L167.63 86.1L168.15 85.82L168.66 85.53L169.17 85.22L169.67 84.89L170.16 84.55L170.65 84.19L171.13 83.81L171.6 83.41L172.06 83L172.52 82.57L172.97 82.12L173.42 81.66L173.71 81.35L173.99 81.04L174.26 80.73L174.53 80.41L174.8 80.08L175.05 79.75L175.3 79.41L175.54 79.06L175.78 78.71L176.01 78.35L176.23 77.99L176.45 77.62L176.65 77.24L176.86 76.86L177.05 76.47L177.24 76.08L177.42 75.68L177.6 75.27L177.76 74.86L177.92 74.44L178.08 74.02L178.22 73.59L178.36 73.15L178.5 72.71L178.62 72.26L178.74 71.8L178.85 71.34L178.96 70.87L178.96 56.6L178.84 56.15L178.72 55.71L178.6 55.27L178.47 54.84L178.33 54.41L178.19 53.99L178.04 53.57L177.88 53.16L177.72 52.76L177.55 52.36L177.38 51.96L177.2 51.57L177.01 51.19L176.82 50.81L176.62 50.43L176.42 50.06L176.2 49.7L175.98 49.34L175.76 48.99L175.53 48.64L175.29 48.29L175.04 47.95L174.79 47.61L174.53 47.28L174.26 46.95L173.99 46.63L173.71 46.31L173.42 46L172.96 45.54L172.5 45.09L172.04 44.66L171.56 44.25L171.08 43.85L170.6 43.47L170.11 43.11L169.61 42.77L169.11 42.44L168.6 42.13L168.08 41.84L167.56 41.56L167.03 41.3L166.5 41.06L165.96 40.84L165.41 40.63L164.85 40.44L164.29 40.26L163.73 40.1L163.15 39.96L162.57 39.84L161.98 39.73L161.39 39.64L160.79 39.56L160.18 39.5L159.56 39.46L158.94 39.44L158.31 39.43L157.68 39.44L157.07 39.46Z" id="ai7Yranga"></path><path d="M390.01 55.01C383.91 53.6 380.81 51.82 380.81 47.5C380.81 42.9 385.22 39.06 394.7 39.06C403.99 39.06 409.15 43.18 409.15 46.84C409.26 46.94 409.79 47.41 410.74 48.25L424.26 48.25C424.88 47.46 425.22 47.03 425.29 46.94C425.29 37.27 416.94 25.73 395.07 25.73C372.27 25.73 365.14 39.15 365.14 47.78C365.14 55.01 367.76 63.55 385.22 67.58C385.22 67.58 393.57 69.46 400.23 70.96C407.84 72.65 411.03 75.28 411.03 79.69C411.03 83.72 406.99 88.6 396.48 88.6C386.72 88.6 380.81 83.91 380.53 78.37C380.41 78.28 379.85 77.81 378.84 76.97L365.04 76.97C364.42 77.81 364.08 78.28 364.01 78.37C365.23 90.76 374.43 102.4 396.39 102.4C421.25 102.4 426.32 87.2 426.32 79.22C426.32 68.52 420.22 61.58 404.74 58.2C401.79 57.56 396.67 56.51 390.01 55.01Z" id="bRnyC4NdI"></path></defs><g><g><use xlink:href="#b1Rb8yfWgV" opacity="1" fill="#0055ff" fill-opacity="1"></use><g><use xlink:href="#b1Rb8yfWgV" opacity="1" fill-opacity="0" stroke="#000000" stroke-width="1" stroke-opacity="0"></use></g></g><g><use xlink:href="#bXXCx5UaA" opacity="1" fill="#000000" fill-opacity="1"></use><g><use xlink:href="#bXXCx5UaA" opacity="1" fill-opacity="0" stroke="#000000" stroke-width="1" stroke-opacity="0"></use></g></g><g><use xlink:href="#gNoIfJSZe" opacity="1" fill="#000000" fill-opacity="1"></use><g><use xlink:href="#gNoIfJSZe" opacity="1" fill-opacity="0" stroke="#000000" stroke-width="1" stroke-opacity="0"></use></g></g><g><use xlink:href="#i2cB6TlhUF" opacity="1" fill="#000000" fill-opacity="1"></use><g><use xlink:href="#i2cB6TlhUF" opacity="1" fill-opacity="0" stroke="#000000" stroke-width="1" stroke-opacity="0"></use></g></g><g><use xlink:href="#ai7Yranga" opacity="1" fill="#000000" fill-opacity="1"></use><g><use xlink:href="#ai7Yranga" opacity="1" fill-opacity="0" stroke="#000000" stroke-width="1" stroke-opacity="0"></use></g></g><g><use xlink:href="#bRnyC4NdI" opacity="1" fill="#000000" fill-opacity="1"></use><g><use xlink:href="#bRnyC4NdI" opacity="1" fill-opacity="0" stroke="#000000" stroke-width="1" stroke-opacity="0"></use></g></g></g></svg>